<svg width="24" height="24" viewBox="0 0 24 24" fill="none" xmlns="http://www.w3.org/2000/svg">
<path d="M16.5 6.75H18.75" stroke="#010E27" stroke-width="1.5" stroke-linecap="round" stroke-linejoin="round"/>
<path d="M5.25 6.75H13.5" stroke="#010E27" stroke-width="1.5" stroke-linecap="round" stroke-linejoin="round"/>
<path d="M16.0607 5.68934C16.6464 6.27513 16.6464 7.22488 16.0607 7.81066C15.4749 8.39645 14.5251 8.39645 13.9393 7.81066C13.3536 7.22488 13.3536 6.27513 13.9393 5.68934C14.5251 5.10355 15.4749 5.10355 16.0607 5.68934" stroke="#010E27" stroke-width="1.5" stroke-linecap="round" stroke-linejoin="round"/>
<path d="M10.5 12H18.75" stroke="#010E27" stroke-width="1.5" stroke-linecap="round" stroke-linejoin="round"/>
<path d="M5.25 12H7.5" stroke="#010E27" stroke-width="1.5" stroke-linecap="round" stroke-linejoin="round"/>
<path d="M10.0607 10.9393C10.6464 11.5251 10.6464 12.4749 10.0607 13.0607C9.47488 13.6464 8.52513 13.6464 7.93934 13.0607C7.35355 12.4749 7.35355 11.5251 7.93934 10.9393C8.52513 10.3536 9.47488 10.3536 10.0607 10.9393" stroke="#010E27" stroke-width="1.5" stroke-linecap="round" stroke-linejoin="round"/>
<path d="M16.5 17.25H18.75" stroke="#010E27" stroke-width="1.5" stroke-linecap="round" stroke-linejoin="round"/>
<path d="M5.25 17.25H13.5" stroke="#010E27" stroke-width="1.5" stroke-linecap="round" stroke-linejoin="round"/>
<path d="M16.0607 16.1893C16.6464 16.7751 16.6464 17.7249 16.0607 18.3107C15.4749 18.8964 14.5251 18.8964 13.9393 18.3107C13.3536 17.7249 13.3536 16.7751 13.9393 16.1893C14.5251 15.6036 15.4749 15.6036 16.0607 16.1893" stroke="#010E27" stroke-width="1.5" stroke-linecap="round" stroke-linejoin="round"/>
</svg>
