<svg width="12" height="12" viewBox="0 0 12 12" fill="none" xmlns="http://www.w3.org/2000/svg">
<path d="M5.99925 3.66676C5.919 3.66676 5.85375 3.73201 5.85375 3.81226C5.85375 3.89251 5.919 3.95776 5.99925 3.95776C6.0795 3.95776 6.14475 3.89251 6.14475 3.81226C6.1455 3.73201 6.08025 3.66676 5.99925 3.66676" stroke="#010E27" stroke-width="1.2" stroke-linecap="round" stroke-linejoin="round"/>
<path fill-rule="evenodd" clip-rule="evenodd" d="M6 11.25V11.25C3.1005 11.25 0.75 8.8995 0.75 6V6C0.75 3.1005 3.1005 0.75 6 0.75V0.75C8.8995 0.75 11.25 3.1005 11.25 6V6C11.25 8.8995 8.8995 11.25 6 11.25Z" stroke="#010E27" stroke-width="1.2" stroke-linecap="round" stroke-linejoin="round"/>
<path d="M6 6V8.91675" stroke="#010E27" stroke-width="1.2" stroke-linecap="round" stroke-linejoin="round"/>
</svg>
