<svg width="16" height="16" viewBox="0 0 16 16" fill="none" xmlns="http://www.w3.org/2000/svg">
<path d="M7.99958 10.6674H6.32758C5.82358 10.6674 5.33825 10.858 4.96825 11.2L4.92558 11.24C4.69092 11.4574 4.50825 11.724 4.38958 12.0214L4.15625 12.6074" stroke="#7A8395" stroke-width="1.2" stroke-linecap="round" stroke-linejoin="round"/>
<path d="M8.79027 8.7907C9.68693 8.46736 10.3329 7.62336 10.3329 6.61403C10.3329 5.32536 9.28827 4.28003 7.99893 4.28003C6.9896 4.28003 6.1456 4.92603 5.82227 5.82336" stroke="#7A8395" stroke-width="1.2" stroke-linecap="round" stroke-linejoin="round"/>
<path d="M2.64022 5.30737C1.51022 7.55671 1.87956 10.3667 3.75689 12.244C5.63489 14.122 8.44556 14.4907 10.6949 13.36" stroke="#7A8395" stroke-width="1.2" stroke-linecap="round" stroke-linejoin="round"/>
<path d="M3.75586 3.75666V3.75666C6.09986 1.41266 9.89986 1.41266 12.2432 3.75666C14.5865 6.09999 14.5865 9.89932 12.2439 12.2433" stroke="#7A8395" stroke-width="1.2" stroke-linecap="round" stroke-linejoin="round"/>
<path d="M13.3337 13.3334L2.66699 2.66675" stroke="#7A8395" stroke-width="1.2" stroke-linecap="round" stroke-linejoin="round"/>
</svg>
