<svg width="25" height="24" viewBox="0 0 25 24" fill="none" xmlns="http://www.w3.org/2000/svg">
<ellipse cx="9.49847" cy="9.99909" rx="6.0025" ry="2.50104" stroke="#0a9b94" stroke-width="1.5" stroke-linecap="round" stroke-linejoin="round"/>
<path d="M15.501 13.5006C15.501 14.8819 12.8136 16.0017 9.49847 16.0017C6.18338 16.0017 3.49597 14.8819 3.49597 13.5006" stroke="#0a9b94" stroke-width="1.5" stroke-linecap="round" stroke-linejoin="round"/>
<path d="M21.5034 9.99915C21.5034 11.3804 18.8159 12.5002 15.5009 12.5002" stroke="#0a9b94" stroke-width="1.5" stroke-linecap="round" stroke-linejoin="round"/>
<path d="M15.501 9.99915V17.5023C15.501 18.8836 12.8136 20.0033 9.49847 20.0033C6.18338 20.0033 3.49597 18.8836 3.49597 17.5023V9.99915" stroke="#0a9b94" stroke-width="1.5" stroke-linecap="round" stroke-linejoin="round"/>
<path d="M21.5034 6.49768V14.0008C21.5034 15.3821 18.8159 16.5018 15.5009 16.5018" stroke="#0a9b94" stroke-width="1.5" stroke-linecap="round" stroke-linejoin="round"/>
<path d="M9.99896 7.50817C9.70197 7.25323 9.5214 6.88849 9.49875 6.49775C9.49875 5.11717 12.1899 3.9967 15.5012 3.9967C18.8126 3.9967 21.5037 5.11717 21.5037 6.49775C21.5037 7.87832 18.8126 8.99879 15.5012 8.99879C15.3312 8.99879 15.1611 8.99879 15.001 8.98878" stroke="#0a9b94" stroke-width="1.5" stroke-linecap="round" stroke-linejoin="round"/>
</svg>
