<svg width="24" height="24" viewBox="0 0 24 24" fill="none" xmlns="http://www.w3.org/2000/svg">
<path fill-rule="evenodd" clip-rule="evenodd" d="M19 14H16.25C15.145 14 14.25 13.105 14.25 12V5C14.25 3.895 15.145 3 16.25 3H19C20.105 3 21 3.895 21 5V12C21 13.105 20.105 14 19 14Z" stroke="#7a8395" stroke-width="1.5" stroke-linecap="round" stroke-linejoin="round"/>
<path fill-rule="evenodd" clip-rule="evenodd" d="M7.75 21H5C3.895 21 3 20.105 3 19V5C3 3.895 3.895 3 5 3H7.75C8.855 3 9.75 3.895 9.75 5V19C9.75 20.105 8.855 21 7.75 21Z" stroke="#7a8395" stroke-width="1.5" stroke-linecap="round" stroke-linejoin="round"/>
</svg>
