<svg width="24" height="24" viewBox="0 0 24 24" fill="none" xmlns="http://www.w3.org/2000/svg">
<path d="M20 12V20" stroke="#7A8395" stroke-width="1.5" stroke-linecap="round" stroke-linejoin="round"/>
<path d="M14.6992 14.6699V19.9999" stroke="#7A8395" stroke-width="1.5" stroke-linecap="round" stroke-linejoin="round"/>
<path d="M4 17V20" stroke="#7A8395" stroke-width="1.5" stroke-linecap="round" stroke-linejoin="round"/>
<path d="M9.2998 13.5999V19.9999" stroke="#7A8395" stroke-width="1.5" stroke-linecap="round" stroke-linejoin="round"/>
<path d="M15.9386 8.50841C16.622 9.19183 16.622 10.2999 15.9386 10.9833C15.2552 11.6667 14.1471 11.6667 13.4637 10.9833C12.7803 10.2999 12.7803 9.19182 13.4637 8.50841C14.1472 7.825 15.2552 7.825 15.9386 8.50841" stroke="#7A8395" stroke-width="1.5" stroke-linecap="round" stroke-linejoin="round"/>
<path d="M21.3419 4.00548C22.0253 4.6889 22.0253 5.79694 21.3419 6.48035C20.6585 7.16377 19.5505 7.16377 18.8671 6.48035C18.1836 5.79694 18.1836 4.68889 18.8671 4.00548C19.5505 3.32207 20.6585 3.32207 21.3419 4.00548" stroke="#7A8395" stroke-width="1.5" stroke-linecap="round" stroke-linejoin="round"/>
<path d="M5.13196 9.40246C5.81538 10.0859 5.81538 11.1939 5.13196 11.8773C4.44855 12.5607 3.3405 12.5607 2.65709 11.8773C1.97368 11.1939 1.97368 10.0859 2.65709 9.40246C3.34051 8.71904 4.44855 8.71904 5.13196 9.40246" stroke="#7A8395" stroke-width="1.5" stroke-linecap="round" stroke-linejoin="round"/>
<path d="M10.5363 4.9005C11.2197 5.58392 11.2197 6.69196 10.5363 7.37537C9.85284 8.05879 8.7448 8.05879 8.06139 7.37537C7.37797 6.69195 7.37797 5.58391 8.06139 4.9005C8.74481 4.21709 9.85285 4.21709 10.5363 4.9005" stroke="#7A8395" stroke-width="1.5" stroke-linecap="round" stroke-linejoin="round"/>
<path d="M18.7691 6.35986L16.0391 8.62986" stroke="#7A8395" stroke-width="1.5" stroke-linecap="round" stroke-linejoin="round"/>
<path d="M13.24 8.77986L10.75 7.10986" stroke="#7A8395" stroke-width="1.5" stroke-linecap="round" stroke-linejoin="round"/>
<path d="M5.23926 9.53001L7.95926 7.26001" stroke="#7A8395" stroke-width="1.5" stroke-linecap="round" stroke-linejoin="round"/>
</svg>
